<?xml version="1.0" encoding="utf-8"?>
<!-- Svg Vector Icons : http://www.onlinewebfonts.com/icon -->
<!DOCTYPE svg PUBLIC "-//W3C//DTD SVG 1.1//EN" "http://www.w3.org/Graphics/SVG/1.1/DTD/svg11.dtd">
<svg version="1.1" xmlns="http://www.w3.org/2000/svg" xmlns:xlink="http://www.w3.org/1999/xlink" x="0px" y="0px" viewBox="0 0 256 256" enable-background="new 0 0 256 256" xml:space="preserve">
<metadata> Svg Vector Icons : http://www.onlinewebfonts.com/icon </metadata>
<g><g><g id="e6c6b53d3c8160b22dad35a0f7103ecc"><path fill="#000000" d="M77.2,67.3c-0.8-7.1,5.5-4.1,4.7,0.2C80.7,68.6,78.5,67.7,77.2,67.3z M84.7,66c1.6-0.2,3.1-0.4,3.6-1.7c-2.2-1.4-5.5,2-4.2,3.6C84.9,67.8,84.3,66.3,84.7,66z M63.6,70.3c1.3-0.6,3.5-0.4,4.2-1.7c-4-1.4-11.1-0.4-12.3,2.3C58.5,70.7,61,68.3,63.6,70.3z M54.7,71.1c-0.9-0.2-1.2,0.8-0.7,1.3C54.6,72.4,54.7,71.8,54.7,71.1z M52.6,74.8c-0.1-1.8-4.5-3.3-4.9-0.7C48,75.5,51.6,76.4,52.6,74.8z M45.2,73.1c-0.9,0-1.4,0.5-1.9,0.9C44,74.5,45.5,74.3,45.2,73.1z M42.9,78.3c3.3-0.2,4.4,2.8,7.2,2.5C50.6,77.4,43.9,72.9,42.9,78.3z M88,94.7c-1-3.3,2-6.1,0.2-8.7c-2.6,0.2-4.8,12.2-1.1,12.1c2.6,0,3.6-7.3,3.8-9.7C88.9,89.6,89.7,93.4,88,94.7z M56.4,93.4c0-0.5-0.3-0.6-0.7-0.6C55.6,93.3,56,93.7,56.4,93.4z M65.7,98.9c0-1.2,0-2.3-0.9-2.5C64,96.3,64,97,63.6,97.2C63.8,98.2,64.4,98.9,65.7,98.9z M56.5,104.9c3.6,0.4,6.1,3,9.5,3c-2.7-1.8-5.5-3.5-9.8-3.8C56,104.7,56.5,104.6,56.5,104.9z M85.1,107.8c-0.3-1.3-0.8-2.3-1.5-3.2C83.9,105.9,84.2,107.1,85.1,107.8z M64.3,111.9c-2.4-3.2-6.2-5.9-10.4-6.6C54.5,110.4,60.2,110.4,64.3,111.9z M57.9,113.1c-1.6-2.7-4.4-4.3-7.8-5.3C52,110.1,53.7,113.6,57.9,113.1z M49.2,110.4c0.6,1.1,2.3,2.3,1.9,3.8c-1.7-0.5-2.5-1.8-4.2-2.3c0.9,1.3,4.3,6.8,6.4,6.6c1.3-0.1,2-1.6,1.7-4C54,112.4,50.8,111.4,49.2,110.4z M58.8,115.3c0.4,1.2,0.6,2.6,2.1,2.6C60.6,116.7,59.9,115.9,58.8,115.3z M57.5,115.9c-0.7-0.1-1.1,0.1-1.1,0.7c0.2,0,0.3,0.2,0.4,0.4C57.3,117,57.6,116.6,57.5,115.9z M89.9,120.3c0.2-1.1,0.4-3.1,0-4.2C89.6,117.2,88.7,119.6,89.9,120.3z M76.6,116.3c0.1,1.1-0.4,2.9,0.6,3.2C77.2,118.7,77.4,116.8,76.6,116.3z M85.5,120.6c-0.6-0.5-1.3,0.2-1.7-0.2c-0.4-1.3-0.2-3.1-1.3-3.6c-0.1,0-0.2,0-0.4,0c-1.6,3.2-1.4,10.2,1.3,11.9c0.5,0.9,0.6,2.2,1.9,2.3c1.1-0.9,1.3-2.6,1.5-4.4C84.5,126.2,86.7,122.1,85.5,120.6z M91.2,122.7c0.2-1.7,1.7-4.1,0.6-5.9C91.4,118.5,90.7,120.9,91.2,122.7z M57.9,124.2c0.3-0.9,0.1-2.3-0.6-2.8C56.9,122.2,56.6,124.1,57.9,124.2z M61.3,125c0.8,0.5,0.8,1.7,1.9,1.9C64.5,125.2,62,122.2,61.3,125z M93.7,128.8c0,0.6-0.8,1.4-0.2,1.9C93.6,130.2,94.1,129.2,93.7,128.8z M95.3,136.2c0-0.9,0.1-1.9-0.4-2.3C94.9,134.6,94.4,136.1,95.3,136.2z M71.3,143.9c0.1,0.7,0.2,1.4,0.9,1.5C72.7,144.8,72.4,143.6,71.3,143.9z M79.8,144.9c0.3,0.5,1,1.5,1.5,1.1C80.9,145.7,80.4,144.4,79.8,144.9z M97.8,146.9c-0.5,2.3,0.7,4.3,1.7,5.7C99.9,150.4,99.9,147.3,97.8,146.9z M102.5,161.5c0.3-0.6,0.4-2.3-0.2-2.6C101.8,159.6,101.4,161.2,102.5,161.5z M111.1,170.6c-0.3-1.4-1.4-2.9-2.5-2.8C109,169.1,109,170.9,111.1,170.6z M112.8,173.3c0,0.9-0.1,1.9,0.4,2.3C113.2,174.6,113.2,173.7,112.8,173.3z M50.3,173.5c0,0.7,0.4,1,0.7,1.3C51,174.2,50.9,173.6,50.3,173.5z M119.6,183.9c-0.5-3.6-2.3-5.7-4.7-7.4C115.2,180.2,117,182.4,119.6,183.9z M150.1,202.6c-0.1-0.1-0.9-0.4-0.9,0C149.4,202.8,149.9,203.2,150.1,202.6z M246,216.6c0,0.7,0,1.4,0,2.1c-0.3,0.7-0.4,1.5-0.6,2.3c-5.3,3.4-15.1,2.1-19.5,6.4c-7.6-4.1-14.7,2.4-22.7,3c-1.3,0.1-2.8-0.1-4.2,0c-4.7,0.4-9.3,1.5-14.2,1.9c-5,0.4-9.9,0.7-15.1,0.9c-1.9,0-3.8,0-5.7,0c-23.5-1.2-46.7-4.4-64-12.1c-8.6-3.9-16.5-8.6-23.8-14.2c-7.1-5.5-14.4-11.5-19.5-18.4c-5.4-7.2-10.9-14.3-15.7-22.3c-4.6-7.7-9-15.9-12.9-25c-3.8-9-6.5-17.8-9.1-28.8c-1.7-7.2-3.4-15.2-6.4-22c-1.2-2.6-2.5-4.7-2.6-7.2c0-0.6,0-1.1,0-1.7c0.9-7.9,7.1-12.6,14.4-14.8c1.8-0.6,3.6-1.1,5.3-2.1c0.1-0.1,1.2-0.2,0.7-0.7c-3.2-0.8-5.9,4-9.5,2.6c-3.2-1.2-1.3-6.1,2.1-7.6c1.6-0.7,4.8-0.9,6.2-1.7c2.6-1.4,3.7-4.5,3.2-7.2c-0.3-1.6-2-2.5-1.9-3.8c0.1-1.8,3.4-3.4,4.9-4.6c1.9-1.4,4.2-3.1,4-5.3c-0.2-2.3-2.9-3-4.2-4.7c-2-2.7-2.3-6.7,0.9-8.3c3.4-1.7,9.9-0.7,10.6,3.6c0.6,3.8-2.1,5.3-0.9,8.1c2.1,5.3,18.7-3.1,14.6,7.9c3.6,5.7,17.8,0.8,18.2,9.8c5.9,0.1,8.6,4.6,13.4,6.4c1.3,0.5,2.8,0.5,4.2,0.9c8.1,2.7,18.1,5.7,21.4,13.4c-3,2-7.1,0.7-10.6-0.6c-3.1-1.1-7.5-3.2-10.6-1.9c-3.1,1.3-2.9,6.5-2.5,11.7c1.1,13.9,1.8,28.2,3.8,40.7c2.8,17.4,8.7,31.3,17,42.2c8.1,10.5,17.6,21.6,29.9,29.3c10.4,6.5,22.1,11.7,36.9,15c2.2,0.5,4.8,1.6,6,1.3c1.8-0.3,5.6-5.5,7-6.8c3.3-3,7.6-7.3,12.3-3.6c-0.6,5.1-5.2,6.2-6.2,10.8c2.8,1.8,5.8,0.2,9.3,0.4c4.1,0.2,7.2,2.6,10.6,2.1c2.2-0.3,3.3-1.9,4.9-3C229.3,217,243.8,209.8,246,216.6z M204.9,202.6c-0.1-0.6,0.2-1.6-0.4-1.7C204,201.2,203.5,202.9,204.9,202.6z M109.7,69.4c1.9,1.1,3.5,2.4,5.1,3.8c1-2.9-1.8-4.7-5.1-4.6C109.7,68.8,109.7,69.1,109.7,69.4z M160.7,208.8c0.7,0.1,1.3,0.3,1.3-0.6C161.3,208.2,160.8,208.4,160.7,208.8z M134.5,192.2c-0.1,0.9,1.7,0.9,2.1,0.7C136.3,192.3,135.4,191.6,134.5,192.2z M130,188.6c0.3,0.3,1.1,0.1,1.7,0.2c0.1-0.7-0.2-1.1-0.4-1.5C130.3,187.2,130,187.8,130,188.6z M93.7,111.2c-0.5-0.4-0.9,0.4-1.1,0c0.6-4.7,1.6-11.9-0.4-15.9c-0.5-0.4-1.3,0.1-1.5-0.2c1.3-3.2,2.2-9.7,1.7-13.6c-0.2-1.4-0.9-3.8-1.7-4.4c-2-1.3-3.9,0.7-5.3,1.1c-0.9,0.3-1.9,0.1-2.8,0.2c-3.8,0.5-7.9,1.6-10.4,2.8c1.3,0.9,3.2,1.2,3.8,2.8c-3.3-0.2-5.9-1.2-8.7-1.9c0.3,4.3-4.9,2.9-8.1,3.2c1.1,0,1.3,0.6,1.3,1.3c0.1,2.5-8.1,5.5-11,3.6c-4,3.3,1.8,6.6,1.5,10.8c-0.8,0.6-1.2,1.6-1.9,2.3c-4,0.1-8.3,0.9-7.6,5.1c-0.6-0.3-1.4-0.5-2.1-0.2c-1,2.6,0.7,5.5,3,6.1c0.6-0.2,0.7-0.8,1.5-0.7c5.3,1,7.1,4.5,6.8,11.2c0,1.2,0.1,2.6-0.7,3.4c-3-0.2-5.8-7.6-0.9-7.8c-1.2-1.7-2-4.2-4.2-4.2c-2.5,0.1-3.5,3.9-5.3,5.3c2.5,1.4,8.5,5.2,3.6,7.8c2.4,0.4,3.7,1.3,4.7,2.6c1.7,2.2,1.6,5.6,2.8,7.4c2.5,3.7,3.8-3.3,6.8-0.4c0.7,0.2-0.3-0.7-0.4-0.7c-2.6-2.8-6.5-5-7.9-8.3c1.2-0.5,2.7,0,3.8,0.2c0.4-2.2-1.1-4.7-0.6-6.4c0.4-1.2,1.1-0.7,1.9-1.1c0.5-0.3,0.1-1.3,0.9-0.9c0,2.6-1.6,7,0.2,8.9c2.6,0.5,3.3-3.9,5.5-4c1.2,0,2.4,2.1,3.2,3.2c1,1.3,2.4,2.9,2.1,4.4c-0.7,3.1-5.8,0.7-7.6-0.6c1.1,4.2,7.6,4.9,7.9,10.4c0,0.6-0.3,1.4-0.2,2.1c0.4,2.9,3.1,5.1,5.9,3.2c0.4,1,0.5,2.4,1.5,2.8c0.9-0.8,0.6-2.8,1.1-4c3.3,0.7,5,2.3,6,4.9c0.5,1.3,0.4,3.7,2.5,3.8c0.3-3.2-2.2-5.2-2.6-8.3c1.7,2.7,7.8,5.7,7.6,10c-0.2,2.9-3.6,3.2-6.8,3.6c3.1,1.1,4.4,4.6,7.8,5.7c0.9,0.3,2.1,0,3,0.4c2.5,0.8,6.4,5.9,5.3,9.1c-5.2,2.6-9.3-4.5-15.1-4.4c2.5,3.1,6.5,4.2,9.8,5.7c3.6,1.6,7.3,3.3,10.8,4.9c8.3,3.9,14.1,8.9,19.5,15.3c-3.8,2-15.2-1.4-8.3-3.8c-2.4-0.1-4.9-1.6-7-0.7c1.1,7.2,10.6,6,17.8,7.2c-0.6,1.2-1.6,2.2-2.3,3.4c0.6,0.3,1.3,0.5,2.3,0.4c-0.5,0.7-1.7,0.7-1.7,1.9c0.9,1.2,2.7,1.5,4,2.5c4.9-3.5,5.4,4.4,8.5,4.6c2.9,0.1,3.5-4.1,6.4-4.6c-0.7,1.5-2.2,2.4-2.8,4c2.9-0.7,3.7-2.2,6-2.8c8.5-2.1,15.4,4.9,22.3,5.7c2.5,0.3,5,1.7,7.2,2.1c2.8,0.5,4.6-0.4,6.8-1.5c-3.4-3.1-11.1-1.9-13.8-5.7c0.1-0.7,0.6-1,0.9-1.3c-8.9,2-14.4-3.4-18.2-8.3c-10.9-2.8-20.5-7-25.2-16.1c-0.2-0.9,0.8-0.4,0.6-1.3c-3.9-4.3-7.7-8.6-10.8-13.6c-1.1-1.7-1.8-3.9-3-5.3c-0.8-0.9-2.1-1.4-2.8-2.3c-0.8-1-1-2.2-2.3-2.6c-0.5,0.7-0.2,2.4-0.6,3.2c-0.9-3.7-2.9-7.1-6.8-7.2c-0.1-2.6,2.1-3.1,3.2-4.6c-1.5-1.8-1.9-4.1-2.6-6.8c-1.9-6.6-3.5-13.6-5.1-19.7c-2.2,0.8-2.7,3.2-3.8,5.1c0.1-2.7,0.2-5.4,1.7-6.8c0.7,0.1,0.7,0.8,1.1,1.1c0.4-1.3,1.6-2.5,0.9-4.2c-0.5-0.7-1.9-0.4-2.3-0.4C94,118,94.8,113.8,93.7,111.2z M169.7,223.4c1.6-0.7,3.1-1.6,3.8-3.2C171.7,220.6,169.2,221.3,169.7,223.4z M169.9,219.6c-1.1,0.6-2.3,1.1-3,2.1C168.5,221.8,170.3,220.2,169.9,219.6z M164.1,222.5c1.1-0.3,2.2-1.4,2.1-2.3C164.9,220.3,163,221.2,164.1,222.5z M164.8,218.1c-1.7-0.5-3.1,0.8-3.2,2.5C163.1,220.2,164.1,219.3,164.8,218.1z M159.5,218.5c-1.7,0.3-2.9,1-3.4,2.5C158.1,221.8,159.2,220,159.5,218.5z M156.8,223.4c0.5,0,0.9,0,0.9-0.4C157.5,222.7,156.7,222.8,156.8,223.4z M159.9,215.3c-2.6-0.2-5.8,1.5-4.2,3.8C157.5,218.2,159.3,217.3,159.9,215.3z M146.8,218.9c1.7,0.2,2.1-1.7,3.2-1.3c0.7,0.4,0.3,1.9,1.3,1.9c2.5-0.5,3.4-3.9,1.9-6.2C149.9,213.8,146.9,215.6,146.8,218.9z M147.6,213.9c-1,0.5-2.1,0.9-2.6,1.9C146.2,215.8,148,214.4,147.6,213.9z M142.3,214.9c0.1,0.5-0.8,1-0.2,1.3C142.3,216,143.2,215,142.3,214.9z M138.9,219.4c0,0.3-0.3,0.4-0.2,0.7c0.2,0,0.5,0,0.7,0C139.5,219.7,139.4,219.4,138.9,219.4z M136,218.5c-1,0-1.3,0.7-1.3,1.7C135.5,220,136.3,219.7,136,218.5z M116.9,208.8c-1.2,0-1.5,0.1-0.2,0.4c1.3,0.2,3.5,0.4,4.4,0C120.1,209.2,117.5,208.9,116.9,208.8z M122.6,205.8c-1-0.7-3-0.2-4,0.2C119.2,207.6,122,206.9,122.6,205.8z M116.6,220c4.7,2.5,11.2,5.2,18,4.4C129.6,222,122.3,220.9,116.6,220z M109.6,217.9c0.5,0.6,1.5,0.6,2.3,0.9C113.2,217.5,110.2,216.8,109.6,217.9z M91.8,202.6c-1.3,0.1-2.7,0.1-3,1.1C90,204.2,91.7,203.9,91.8,202.6z M88.2,207.5c0.4,0.4,1.3,0.9,1.5,0C89.5,207.3,88.3,207.1,88.2,207.5z M90.4,191.4c0.2-0.8-1.3-1.1-1.5-0.4C89.3,191.3,89.7,191.5,90.4,191.4z M92.9,197.9c0-0.3,0.1-0.4,0.2-0.6c-0.6-0.6-1.7-0.7-2.6-0.4C90.6,197.8,92.1,198.2,92.9,197.9z M93.1,210c0.2,0.3,0.9,0.3,1.1,0c0.1-0.6-0.2-0.8-0.6-0.9C93.5,209.4,93.2,209.6,93.1,210z M99,188.2c-0.6-1.8-2.6-1.3-4-1.9c-2.2-0.9-4-3.2-6.8-3.2c-0.1,0-0.2,0-0.4,0C90.2,186,93.4,189,99,188.2z M89.1,181.2c-1.8-1.2-3.7-2.2-6.2-2.6C83.7,180.6,86.8,181.3,89.1,181.2z M95,190.1c1.3,1.4,3,2.4,5.9,2.3C99.7,190.9,97.1,189.9,95,190.1z M102.2,198.6c-2-1.3-5-3.5-7.6-3C96.1,197.5,99.1,199,102.2,198.6z M95,205.8c0,0.3-0.3,0.3-0.4,0.6C95.1,207,95.8,205.9,95,205.8z M99.3,211.5c0.2,0.7,0.9,0.9,1.5,1.1c0.3-0.4,0.8-0.6,0.6-1.5C101,210.8,99.3,210.7,99.3,211.5z M102.9,203.1c-0.6-0.4-2.7-0.8-3.2,0C100.6,203.5,102.4,204.5,102.9,203.1z M103.5,196.7c0.2-1.4-1.4-1.4-2.1-0.9C101.5,196.7,102.7,196.5,103.5,196.7z M105.6,186.5c-0.8-1.3-3.2-1.1-4.9-1.5c-1.2-1.6-4.2-2.1-6.8-1.7C96.8,185.3,100.2,186.9,105.6,186.5z M105.2,204.7c0.8,0.7,2.1,0.9,3.2,1.3c0.1-0.5,0.3-0.7,0.2-1.3C108.1,204,105.7,203.7,105.2,204.7z M89.1,174c0.2-0.9-0.3-1.1-1.1-0.9C87.7,174.1,88.6,173.8,89.1,174z M93.7,176.3c-0.6-0.1-0.4-1-1.1-0.9C91.8,176,93.1,176.9,93.7,176.3z M80.6,177.6c-0.6-1.4-2-2-3-3c1.9-2.7-2.3-3.8-3-5.7c0-0.6,0.4-0.7,0.6-1.1c-1.6-0.9-3.4-1.6-4.4-3.2c0.7-0.5,2.7,0.2,3.4-0.4c-1.2-0.5-2.4-0.9-2.8-2.1c0.7-1.5,3.4-1.1,4-2.6c-3.3-0.7-6.5-2.5-10-2.3c0,1.3,1.2,1.5,1.7,2.5c-1-0.5-1.9-1.1-3.4-1.1c-0.1,0.9,0.5,1.2,0.4,2.1c-1,0.1-1.6-0.3-2.6-0.2c0.8,1.7,2.8,2.3,3.4,4.2c-0.8,0.2-1.8-0.3-2.1,0c2,1.7,4.9,3.4,6,5.3c-1.9-0.3-2.9-1.5-4.7-1.9c1.5,3,5.2,3.6,7.9,5.1C74.7,174.6,77.2,177,80.6,177.6z M76.4,179.9c0.8,0.4,2.4,1.8,3.4,0.8C78.9,180.2,77.6,179.4,76.4,179.9z M74.9,178.9c-0.5-0.9-3.3-1.3-4-0.7C72.2,178.5,73.3,179.5,74.9,178.9z M71.5,179.5c0,0.3-0.3,0.4-0.2,0.7c0.3-0.1,1.1,0.2,1.1-0.2C72.2,179.9,72.1,179.5,71.5,179.5z M69,154.3c-0.5-1.8-1.2-3.7-2.6-5.1c-0.8-0.7-1.5-0.7-2.1-1.7c-1.5-2.6-0.8-6.2-2.6-8.9c-0.5-0.1-1.3-0.4-1.7,0c0,1.3,2.9,4.2,0.9,5.7c-4.4,0.2-6-3.3-10.2-2.6c-0.9,2.5,2.4,3.7,1.5,5.5C58.2,149.1,63,153.3,69,154.3z M55.4,160c1.1,0.8,2.7,2.2,4.2,2.1C58.4,161.3,57.4,159.4,55.4,160z M53.3,158.3c-0.5-1.5-1.3-2.7-3.2-2.8C50.5,157.1,52.3,157.3,53.3,158.3z M50.1,163.2c1,0.7,2,2.4,3,2.5C52.4,164.7,51.5,162.9,50.1,163.2z M51.4,150.2c0.1-0.3,0.3-0.5,0.4-0.7c-0.5-0.7-1.7-0.3-1.9,0.4C50.3,150,51,150,51.4,150.2z M80.8,157.7c0-1.6-1.8-2.6-3.2-1.7C78,157.3,79.3,157.6,80.8,157.7z M63,133c0-0.3-1.2-0.3-1.1,0C62.1,133,63,133.8,63,133z M55.6,132.2c-0.2,0-0.5,0-0.7,0c-0.3,0.2-0.2,0.8-0.2,1.3c0.3,0,1.1,0.7,1.3,0.2C55.5,133.5,56,132.4,55.6,132.2z M41.4,132c0.6,1.4,3.2,1.3,3.6-0.2C43.9,131.4,42.3,131.7,41.4,132z M42,126.7c-0.7,0-1.4,0-1.9,0.2C40.2,127.7,42,127.6,42,126.7z M43.7,96.2c-1,0.5-3-0.5-4,0c0.9,3.4,7.2,1.6,6.8-1.1c-0.4-2.3-6.4-1.7-8.5-1.5C39.6,94.7,42.2,95,43.7,96.2z M36.1,99.8c0.4,0.5,1.3,0.4,1.9,0.7c0.1-0.4,0.5-0.5,0.4-1.1C37.9,99.2,36.1,99,36.1,99.8z M45.8,99.1c-0.1,0.4-0.5,1.2,0.2,1.3C46.4,100.1,46.3,99.3,45.8,99.1z M51.1,87.7c0-0.6,0.4-0.6,0.4-1.1c-0.8-0.1-1.3,0.1-1.3,0.7C50.5,87.4,50.6,87.8,51.1,87.7z M50.9,45.7c-0.7,4.6,3.4,10.2,8.3,8.5c0.2-1.7-0.6-2.5-0.6-4c1.3-0.3,2,0.9,2.6,0.6C59.4,47.5,54.6,47.2,50.9,45.7z M48.8,41.3c1.7,0.3,4.3,0.2,4.9-1.1C52.5,39.4,48.7,39.2,48.8,41.3z M44.2,28.1c0.4-3.7-4.1-5.7-6.8-3.2c-1.7,1.6-2.4,5.3,0.2,6.6c-0.3-1-1.2-1.4-0.9-2.8C38.7,27.5,42.3,29.2,44.2,28.1z M42.9,40.2c0.5-0.3,1.2-0.3,1.1-1.1C43.5,39.1,42.5,39.8,42.9,40.2z M38.9,54.2c2.4,0,4.1-1.3,6.4-1.3c2,0,3.9,0.6,6.2,0.4C50,48.3,41.7,52.6,38.9,54.2z M35.4,62.9c4.5-0.6,10.7-3.5,16.7-2.8c2.2,0.2,4.2,1.5,5.5,2.5c-0.7-0.7-1.4-3.5,0-4c3.1,0.6,3.2,6.5,7,5.7c1.9-0.4,2.5-4.1,1.5-6.4c1.4,1,2.2,2.7,4.2,3.2c-0.5-1.8-1.8-2.8-2.6-4.2c0.6-0.7,1.3-1.2,1.1-2.6c-5.4-0.5-10.2,2.4-15.3,3.4c-4,0.8-6.9,1.6-10.4,2.5C40.3,60.8,37.4,61.2,35.4,62.9z M19.5,102.1c-0.3,0.2-0.3,1.1,0.2,1.1C19.8,103.1,20.2,101.9,19.5,102.1z M26.1,79.6c-8.3,1.3,0.6,10.1,5.5,7.9c0.6-1,0.4-1.8,0.4-3.2c2.9,0.3,5.1-1.1,7.6-0.6c0.4,0.9-0.4,1.6-0.6,2.5c8.6-0.6,12.8-7.3,22.1-8.3c1.2-0.1,2.5,0.1,3.8,0c3.9-0.2,8.3-1,12.3-1.7c4-0.7,7.6-2.2,11-3c4.2-1.1,10.7-3.8,9.9-9.5c-0.1-0.7-0.6-1.2-0.9-1.9C74.5,59.6,57.6,68.4,39.9,72c-2.1,0.4-4.7,0.1-6.4,1.9c0.6,1.5,2.8,1.5,3.8,2.6c-0.5,0.6-1.7,0.4-1.9,1.3c0.4,1.6,2.8,1.3,3,3c-3.8,2.6-11.7-0.7-9.8-6.1c-5.7,1.3-14,2.5-14,8.9c0,2.8,1.7,5.4,3.6,7C16.8,84.8,19.1,76,26.1,79.6z M33.1,115c0.2-1.3-1.9-2.2-2.6-1.3C31.1,114.3,32.2,114.5,33.1,115z M26.5,117.4c1.3,4.6,1.8,10.2,5.3,12.7C31.2,124.6,29.3,120.6,26.5,117.4z M34.4,112.5c0.6-2.7-3.3-3.7-3.6-1.9C30.6,112.2,33.1,112,34.4,112.5z M35.2,107.4c-0.8-0.9-3-1.5-4.6-1.1C31.2,107.6,34.5,109.6,35.2,107.4z M32.9,99.1c0.8-0.5,1.8-1,1.9-2.3c-1.1-0.8-3.7-0.9-4,0.4C30.6,98.2,32,98.6,32.9,99.1z M35.4,102.3c0.1-0.7-0.1-1.1-0.2-1.5c-1,0-1.4,0.5-1.5,1.3C34.1,102.2,34.7,102.3,35.4,102.3z M22.1,101.3c-0.1-0.5-0.2-1.1-0.6-1.3C21.1,100.5,21.1,101.4,22.1,101.3z M24,88.5c-0.8-0.3-2.1,0-2.5,0.7c0.4,0.4,1,0.6,1.5,0.7C23.2,89.4,24.1,89.4,24,88.5z M26.1,112.9c-0.5-1.1-0.6-2.6-1.5-3.2C22,110,24.5,113.8,26.1,112.9z M29.7,133.3c1.9,4.5,3.8,9.3,7.8,11.4c-3-3.3-3.7-8.7-5.7-12.7c-0.7-1.3-1.8-2.4-2.5-3.8c-1.5-3.2-2.2-7-5.3-8.5C25.2,124.5,27.8,128.8,29.7,133.3z M81.7,204.3c-1.2-3.9-4.2-5.9-8.5-6.6c-1.1-2.5-4.1-3.1-4.7-6c-0.1-0.6,1.2-0.8,0.7-1.1c-5.8,1.1-6-5-8.7-7.6c-6.9,0.1-5.6-8.4-9.5-12.9c-1.1-1.3-2.2-1.6-3.4-2.8c-1.9-5.9-6.8-8.8-9.7-14c-2.5-4.6-3-9.8-7.2-13.1c3.3,11.1,10.3,20.5,16.7,29.9c5.1,7.5,8.5,14.6,14.2,20.6c1.9,2,4.1,3.4,6.4,5.3C72.1,199.2,74.8,205.2,81.7,204.3z M81,191.4c-0.2-0.8-1.7-1.3-2.5-0.9C79.2,190.9,80.1,191.2,81,191.4z M88,186.5c-1.3-1.5-4-2.1-6.4-3c-3.1-1.2-7.4-2.3-9.7-0.9c0.2,1.9,1.7,2.5,2.6,3.6c2.6,0.4,4.1,1.7,6.6,1.9C84.1,188.3,86.8,188.1,88,186.5z M178.2,229.7c-5.7-2.6-14.1,0.3-20.3-1.1c-1.2-0.3-2.2-1.1-3.2-1.1c-1-0.1-2.2,0.5-3.2,0.6c-5.3,0.5-10,0-15-0.8c-3.4-0.5-7.1-0.7-10.2-1.5c-3-0.8-6-2.6-9.1-3.8c-3.1-1.2-6.3-2.4-9.3-3.6c-5.9-2.4-12-6.5-18.2-8.1c4.1,4.4,11.2,5.8,16.1,9.5c-6.9-1.9-12-5.5-18.2-8.1c4.8,4.3,11.5,6.9,18.2,9.7c6.7,2.8,13.9,5.1,21.8,6.2C143.3,229.7,161.5,233.1,178.2,229.7z M183.2,229.1c-1,0-2.2-0.2-2.3,0.7C181.7,230.6,183.1,230.5,183.2,229.1z M193.4,206.8c0.3,1.4,2.3,1,2.1-0.6C194.4,206,194,206.5,193.4,206.8z M209.1,216.6c-5.1-0.1-11.4-1.9-16.7-1.7c-2,0.1-4.5,0.6-5.1,2.6c1.6,0.6,3.2,0.3,5.1,0.2C198.6,217.5,206.1,220.3,209.1,216.6z M214.2,216.2c-0.9,0-1.2,0.6-1.3,1.3c0.2,0.3,0.8,0.2,1.3,0.2C214.1,216.9,214.5,216.8,214.2,216.2z M225.4,215.5c-0.9-0.1-1.3,1-0.9,1.5c0.6,0.1,0.7-0.3,1.1-0.4C225.7,216,225.2,216,225.4,215.5z M241.1,216.6c-3.9-0.4-8.4-0.2-11.9,0.4C231.2,218.9,238.7,217.7,241.1,216.6z M59,101.5c1.9,1,3.6,3.2,6.1,3c-0.7-0.9-1.6-1.5-2.3-2.5c0.7,0,1.3-0.2,1.5-0.7c-2.3-1.6-5.2-3.6-6.4-5.7C58.7,97.2,59.8,99.6,59,101.5z M83.2,103c-0.4-0.4-0.2-1.4-0.7-1.7C82.4,102.2,82.9,103.3,83.2,103z M65.8,119.5c0.3,3.1,2.3,4.5,2.5,7.8c-2.2-2.5-3.4-6-4.9-9.3c-0.1,3.9,1,6.4,2.1,9.1c0.8,2.1,1.5,4.5,3.6,5.1c1-0.2,0.9-1.4,1.9-1.5c1.1,0.1,1.6,1.8,2.3,1.7c-0.5-0.6-0.7-1.5-0.7-2.5c0.2-0.7,1.2-0.6,1.5-1.1C72.1,124.9,69.3,121.8,65.8,119.5z"/></g></g></g>
</svg>